<svg width="16" height="16" viewBox="0 0 16 16" fill="none" xmlns="http://www.w3.org/2000/svg">
<rect width="16" height="16" rx="8" fill="#E84849"/>
<path d="M10.1272 10.3V10.63C10.1272 10.83 9.95723 11 9.75723 11H6.02723C5.82723 11 5.65723 10.83 5.65723 10.63V10.42C5.65723 10.23 5.76723 10.02 5.99723 9.81C6.35723 9.47 6.66723 9.17 6.91723 8.91C7.16723 8.65 7.43723 8.34 7.73723 7.98C8.32723 7.26 8.63723 6.57 8.63723 5.98C8.63723 5.41 8.31723 5.07 7.74723 5.07C7.37723 5.07 7.05723 5.26 6.80723 5.64C6.72723 5.77 6.61723 5.84 6.46723 5.84C6.40723 5.84 6.34723 5.82 6.27723 5.79L6.00723 5.65C5.87723 5.58 5.80723 5.47 5.80723 5.32C5.80723 5.27 5.81723 5.22 5.84723 5.17C6.31723 4.29 6.88723 3.92 7.87723 3.92C8.50723 3.92 8.98723 4.1 9.33723 4.46C9.68723 4.82 9.85723 5.25 9.85723 5.75C9.85723 6.48 9.49723 7.34 9.09723 7.93C8.89723 8.22 8.65723 8.52 8.37723 8.83C8.08723 9.14 7.86723 9.36 7.71723 9.5C7.55723 9.65 7.38723 9.79 7.21723 9.93H9.75723C9.95723 9.93 10.1272 10.1 10.1272 10.3Z" fill="white"/>
</svg>
